<svg xmlns="http://www.w3.org/2000/svg" width="1125.125244140625" height="1122.5225830078125" viewBox="-456.8129577636719 -464.4643249511719 1125.125244140625 1122.5225830078125"><title>Neo4j Graph Visualization</title><desc>Created using Neo4j (http://www.neo4j.com/)</desc><g class="layer relationships"><g class="relationship" transform="translate(5.549894152322684 503.8068806201528) rotate(390.77924336661385)"><path class="outline" fill="#A5ABB6" stroke="none" d="M 32.5 0.5 L 32.7330880524149 0.5 L 32.7330880524149 -0.5 L 32.5 -0.5 Z M 78.1510568024149 0.5 L 78.3841448548298 0.5 L 78.3841448548298 3.5 L 85.3841448548298 0 L 78.3841448548298 -3.5 L 78.3841448548298 -0.5 L 78.1510568024149 -0.5 Z"/><text text-anchor="middle" pointer-events="none" font-size="8px" fill="#000000" x="55.4420724274149" y="3" font-family="sans-serif">LOCATE…</text></g><g class="relationship" transform="translate(5.549894152322684 503.8068806201528) rotate(449.05921164745047)"><path class="outline" fill="#A5ABB6" stroke="none" d="M 32.5 0.5 L 33.27228177477796 0.5 L 33.27228177477796 -0.5 L 32.5 -0.5 Z M 77.49493802477795 0.5 L 78.26721979955592 0.5 L 78.26721979955592 3.5 L 85.26721979955592 0 L 78.26721979955592 -3.5 L 78.26721979955592 -0.5 L 77.49493802477795 -0.5 Z"/><text text-anchor="middle" pointer-events="none" font-size="8px" fill="#000000" x="55.38360989977796" y="3" font-family="sans-serif">WORKS…</text></g><g class="relationship" transform="translate(616.6356792019966 220.5337308411287) rotate(497.133277094098)"><path class="outline" fill="#A5ABB6" stroke="none" d="M 32.5 0.5 L 34.284956254109154 0.5 L 34.284956254109154 -0.5 L 32.5 -0.5 Z M 74.36698750410915 0.5 L 76.15194375821831 0.5 L 76.15194375821831 3.5 L 83.15194375821831 0 L 76.15194375821831 -3.5 L 76.15194375821831 -0.5 L 74.36698750410915 -0.5 Z"/><text text-anchor="middle" pointer-events="none" font-size="8px" fill="#000000" x="54.325971879109154" y="3" transform="rotate(180 54.325971879109154 0)" font-family="sans-serif">LOCAT…</text></g><g class="relationship" transform="translate(393.8638177841137 539.5114561665335) rotate(231.46576041047808)"><path class="outline" fill="#A5ABB6" stroke="none" d="M 32.5 0.5 L 34.47829307953427 0.5 L 34.47829307953427 -0.5 L 32.5 -0.5 Z M 79.89626182953427 0.5 L 81.87455490906854 0.5 L 81.87455490906854 3.5 L 88.87455490906854 0 L 81.87455490906854 -3.5 L 81.87455490906854 -0.5 L 79.89626182953427 -0.5 Z"/><text text-anchor="middle" pointer-events="none" font-size="8px" fill="#000000" x="57.18727745453427" y="3" transform="rotate(180 57.18727745453427 0)" font-family="sans-serif">LOCATE…</text></g><g class="relationship" transform="translate(-176.09389152147872 128.3287167573365) rotate(244.14726020407727)"><path class="outline" fill="#A5ABB6" stroke="none" d="M 32.5 0.5 L 33.04419337723959 0.5 L 33.04419337723959 -0.5 L 32.5 -0.5 Z M 78.4621621272396 0.5 L 79.00635550447917 0.5 L 79.00635550447917 3.5 L 86.00635550447917 0 L 79.00635550447917 -3.5 L 79.00635550447917 -0.5 L 78.4621621272396 -0.5 Z"/><text text-anchor="middle" pointer-events="none" font-size="8px" fill="#000000" x="55.75317775223959" y="3" transform="rotate(180 55.75317775223959 0)" font-family="sans-serif">LOCATE…</text></g><g class="relationship" transform="translate(-176.09389152147872 128.3287167573365) rotate(300.7483412748741)"><path class="outline" fill="#A5ABB6" stroke="none" d="M 32.5 0.5 L 34.47795643248678 0.5 L 34.47795643248678 -0.5 L 32.5 -0.5 Z M 78.70061268248678 0.5 L 80.67856911497356 0.5 L 80.67856911497356 3.5 L 87.67856911497356 0 L 80.67856911497356 -3.5 L 80.67856911497356 -0.5 L 78.70061268248678 -0.5 Z"/><text text-anchor="middle" pointer-events="none" font-size="8px" fill="#000000" x="56.58928455748678" y="3" font-family="sans-serif">WORKS…</text></g><g class="relationship" transform="translate(157.79914972923163 -43.578573998696356) rotate(499.33967456184064)"><path class="outline" fill="#A5ABB6" stroke="none" d="M 32.5 0.5 L 34.025861425205484 0.5 L 34.025861425205484 -0.5 L 32.5 -0.5 Z M 79.44383017520548 0.5 L 80.96969160041097 0.5 L 80.96969160041097 3.5 L 87.96969160041097 0 L 80.96969160041097 -3.5 L 80.96969160041097 -0.5 L 79.44383017520548 -0.5 Z"/><text text-anchor="middle" pointer-events="none" font-size="8px" fill="#000000" x="56.734845800205484" y="3" transform="rotate(180 56.734845800205484 0)" font-family="sans-serif">LOCATE…</text></g><g class="relationship" transform="translate(-23.426598417624067 318.29403091591223) rotate(278.3467393224102)"><path class="outline" fill="#A5ABB6" stroke="none" d="M 32.5 0.5 L 34.79096459467005 0.5 L 34.79096459467005 -0.5 L 32.5 -0.5 Z M 74.87299584467004 0.5 L 77.1639604393401 0.5 L 77.1639604393401 3.5 L 84.1639604393401 0 L 77.1639604393401 -3.5 L 77.1639604393401 -0.5 L 74.87299584467004 -0.5 Z"/><text text-anchor="middle" pointer-events="none" font-size="8px" fill="#000000" x="54.83198021967005" y="3" font-family="sans-serif">LOCAT…</text></g><g class="relationship" transform="translate(434.53779091817125 429.621099170778) rotate(529.4370766583211)"><path class="outline" fill="#A5ABB6" stroke="none" d="M 32.5 0.5 L 34.31092563797263 0.5 L 34.31092563797263 -0.5 L 32.5 -0.5 Z M 79.72889438797263 0.5 L 81.53982002594526 0.5 L 81.53982002594526 3.5 L 88.53982002594526 0 L 81.53982002594526 -3.5 L 81.53982002594526 -0.5 L 79.72889438797263 -0.5 Z"/><text text-anchor="middle" pointer-events="none" font-size="8px" fill="#000000" x="57.01991001297263" y="3" transform="rotate(180 57.01991001297263 0)" font-family="sans-serif">LOCATE…</text></g><g class="relationship" transform="translate(434.53779091817125 429.621099170778) rotate(470.31114204964763)"><path class="outline" fill="#A5ABB6" stroke="none" d="M 32.5 0.5 L 32.97677359191143 0.5 L 32.97677359191143 -0.5 L 32.5 -0.5 Z M 77.19942984191144 0.5 L 77.67620343382286 0.5 L 77.67620343382286 3.5 L 84.67620343382286 0 L 77.67620343382286 -3.5 L 77.67620343382286 -0.5 L 77.19942984191144 -0.5 Z"/><text text-anchor="middle" pointer-events="none" font-size="8px" fill="#000000" x="55.08810171691143" y="3" transform="rotate(180 55.08810171691143 0)" font-family="sans-serif">WORKS…</text></g><g class="relationship" transform="translate(276.08441880488937 552.5769664594382) rotate(294.6339302584157)"><path class="outline" fill="#A5ABB6" stroke="none" d="M 32.5 0.5 L 33.725545359273234 0.5 L 33.725545359273234 -0.5 L 32.5 -0.5 Z M 79.14351410927324 0.5 L 80.36905946854647 0.5 L 80.36905946854647 3.5 L 87.36905946854647 0 L 80.36905946854647 -3.5 L 80.36905946854647 -0.5 L 79.14351410927324 -0.5 Z"/><text text-anchor="middle" pointer-events="none" font-size="8px" fill="#000000" x="56.434529734273234" y="3" font-family="sans-serif">LOCATE…</text></g><g class="relationship" transform="translate(276.08441880488937 552.5769664594382) rotate(353.6699427279834)"><path class="outline" fill="#A5ABB6" stroke="none" d="M 32.5 0.5 L 33.63960938471646 0.5 L 33.63960938471646 -0.5 L 32.5 -0.5 Z M 77.86226563471647 0.5 L 79.00187501943292 0.5 L 79.00187501943292 3.5 L 86.00187501943292 0 L 79.00187501943292 -3.5 L 79.00187501943292 -0.5 L 77.86226563471647 -0.5 Z"/><text text-anchor="middle" pointer-events="none" font-size="8px" fill="#000000" x="55.75093750971646" y="3" font-family="sans-serif">WORKS…</text></g><g class="relationship" transform="translate(568.5402303941388 -103.468786525336) rotate(473.2160141486363)"><path class="outline" fill="#A5ABB6" stroke="none" d="M 32.5 0.5 L 33.82651828762006 0.5 L 33.82651828762006 -0.5 L 32.5 -0.5 Z M 79.24448703762006 0.5 L 80.57100532524012 0.5 L 80.57100532524012 3.5 L 87.57100532524012 0 L 80.57100532524012 -3.5 L 80.57100532524012 -0.5 L 79.24448703762006 -0.5 Z"/><text text-anchor="middle" pointer-events="none" font-size="8px" fill="#000000" x="56.53550266262006" y="3" transform="rotate(180 56.53550266262006 0)" font-family="sans-serif">LOCATE…</text></g><g class="relationship" transform="translate(328.72397377844976 -249.38756876534484) rotate(338.9212386875656)"><path class="outline" fill="#A5ABB6" stroke="none" d="M 32.5 0.5 L 32.990371690133486 0.5 L 32.990371690133486 -0.5 L 32.5 -0.5 Z M 78.40834044013349 0.5 L 78.89871213026697 0.5 L 78.89871213026697 3.5 L 85.89871213026697 0 L 78.89871213026697 -3.5 L 78.89871213026697 -0.5 L 78.40834044013349 -0.5 Z"/><text text-anchor="middle" pointer-events="none" font-size="8px" fill="#000000" x="55.699356065133486" y="3" font-family="sans-serif">LOCATE…</text></g><g class="relationship" transform="translate(310.93700620519655 236.00686025178754) rotate(521.064835031395)"><path class="outline" fill="#A5ABB6" stroke="none" d="M 32.5 0.5 L 34.29441327644333 0.5 L 34.29441327644333 -0.5 L 32.5 -0.5 Z M 79.71238202644332 0.5 L 81.50679530288666 0.5 L 81.50679530288666 3.5 L 88.50679530288666 0 L 81.50679530288666 -3.5 L 81.50679530288666 -0.5 L 79.71238202644332 -0.5 Z"/><text text-anchor="middle" pointer-events="none" font-size="8px" fill="#000000" x="57.00339765144333" y="3" transform="rotate(180 57.00339765144333 0)" font-family="sans-serif">LOCATE…</text></g><g class="relationship" transform="translate(310.93700620519655 236.00686025178754) rotate(218.71221367074475)"><path class="outline" fill="#A5ABB6" stroke="none" d="M 32.5 0.5 L 32.904573650276724 0.5 L 32.904573650276724 -0.5 L 32.5 -0.5 Z M 77.12722990027672 0.5 L 77.53180355055345 0.5 L 77.53180355055345 3.5 L 84.53180355055345 0 L 77.53180355055345 -3.5 L 77.53180355055345 -0.5 L 77.12722990027672 -0.5 Z"/><text text-anchor="middle" pointer-events="none" font-size="8px" fill="#000000" x="55.015901775276724" y="3" transform="rotate(180 55.015901775276724 0)" font-family="sans-serif">WORKS…</text></g><g class="relationship" transform="translate(631.8122097588534 -0.8116779798312861) rotate(539.5750122656084)"><path class="outline" fill="#A5ABB6" stroke="none" d="M 32.5 0.5 L 34.034131902637064 0.5 L 34.034131902637064 -0.5 L 32.5 -0.5 Z M 74.11616315263706 0.5 L 75.65029505527413 0.5 L 75.65029505527413 3.5 L 82.65029505527413 0 L 75.65029505527413 -3.5 L 75.65029505527413 -0.5 L 74.11616315263706 -0.5 Z"/><text text-anchor="middle" pointer-events="none" font-size="8px" fill="#000000" x="54.075147527637064" y="3" transform="rotate(180 54.075147527637064 0)" font-family="sans-serif">LOCAT…</text></g><g class="relationship" transform="translate(631.8122097588534 -0.8116779798312861) rotate(238.35269075859594)"><path class="outline" fill="#A5ABB6" stroke="none" d="M 32.5 0.5 L 34.68341730868686 0.5 L 34.68341730868686 -0.5 L 32.5 -0.5 Z M 78.90607355868687 0.5 L 81.08949086737373 0.5 L 81.08949086737373 3.5 L 88.08949086737373 0 L 81.08949086737373 -3.5 L 81.08949086737373 -0.5 L 78.90607355868687 -0.5 Z"/><text text-anchor="middle" pointer-events="none" font-size="8px" fill="#000000" x="56.79474543368686" y="3" transform="rotate(180 56.79474543368686 0)" font-family="sans-serif">WORKS…</text></g><g class="relationship" transform="translate(348.22241772559295 -365.6579696936216) rotate(402.28877574197156)"><path class="outline" fill="#A5ABB6" stroke="none" d="M 32.5 0.5 L 34.302236431382575 0.5 L 34.302236431382575 -0.5 L 32.5 -0.5 Z M 79.72020518138257 0.5 L 81.52244161276515 0.5 L 81.52244161276515 3.5 L 88.52244161276515 0 L 81.52244161276515 -3.5 L 81.52244161276515 -0.5 L 79.72020518138257 -0.5 Z"/><text text-anchor="middle" pointer-events="none" font-size="8px" fill="#000000" x="57.011220806382575" y="3" font-family="sans-serif">LOCATE…</text></g><g class="relationship" transform="translate(348.22241772559295 -365.6579696936216) rotate(459.51986899686744)"><path class="outline" fill="#A5ABB6" stroke="none" d="M 32.5 0.5 L 33.335672325366666 0.5 L 33.335672325366666 -0.5 L 32.5 -0.5 Z M 77.55832857536666 0.5 L 78.39400090073333 0.5 L 78.39400090073333 3.5 L 85.39400090073333 0 L 78.39400090073333 -3.5 L 78.39400090073333 -0.5 L 77.55832857536666 -0.5 Z"/><text text-anchor="middle" pointer-events="none" font-size="8px" fill="#000000" x="55.447000450366666" y="3" transform="rotate(180 55.447000450366666 0)" font-family="sans-serif">WORKS…</text></g><g class="relationship" transform="translate(-300.98216216874204 429.45719889444604) rotate(342.29906196037405)"><path class="outline" fill="#A5ABB6" stroke="none" d="M 32.5 0.5 L 32.93322225783332 0.5 L 32.93322225783332 -0.5 L 32.5 -0.5 Z M 78.35119100783332 0.5 L 78.78441326566664 0.5 L 78.78441326566664 3.5 L 85.78441326566664 0 L 78.78441326566664 -3.5 L 78.78441326566664 -0.5 L 78.35119100783332 -0.5 Z"/><text text-anchor="middle" pointer-events="none" font-size="8px" fill="#000000" x="55.64220663283332" y="3" font-family="sans-serif">LOCATE…</text></g><g class="relationship" transform="translate(-300.98216216874204 429.45719889444604) rotate(400.9659669136669)"><path class="outline" fill="#A5ABB6" stroke="none" d="M 32.5 0.5 L 33.83953937174994 0.5 L 33.83953937174994 -0.5 L 32.5 -0.5 Z M 78.06219562174994 0.5 L 79.40173499349989 0.5 L 79.40173499349989 3.5 L 86.40173499349989 0 L 79.40173499349989 -3.5 L 79.40173499349989 -0.5 L 78.06219562174994 -0.5 Z"/><text text-anchor="middle" pointer-events="none" font-size="8px" fill="#000000" x="55.95086749674994" y="3" font-family="sans-serif">WORKS…</text></g><g class="relationship" transform="translate(-128.04708147189854 -225.58624117566214) rotate(187.66373238943163)"><path class="outline" fill="#A5ABB6" stroke="none" d="M 32.5 0.5 L 33.01673174772958 0.5 L 33.01673174772958 -0.5 L 32.5 -0.5 Z M 78.43470049772958 0.5 L 78.95143224545916 0.5 L 78.95143224545916 3.5 L 85.95143224545916 0 L 78.95143224545916 -3.5 L 78.95143224545916 -0.5 L 78.43470049772958 -0.5 Z"/><text text-anchor="middle" pointer-events="none" font-size="8px" fill="#000000" x="55.72571612272958" y="3" transform="rotate(180 55.72571612272958 0)" font-family="sans-serif">LOCATE…</text></g><g class="relationship" transform="translate(-128.04708147189854 -225.58624117566214) rotate(244.9850859056794)"><path class="outline" fill="#A5ABB6" stroke="none" d="M 32.5 0.5 L 34.220799269267786 0.5 L 34.220799269267786 -0.5 L 32.5 -0.5 Z M 78.44345551926779 0.5 L 80.16425478853557 0.5 L 80.16425478853557 3.5 L 87.16425478853557 0 L 80.16425478853557 -3.5 L 80.16425478853557 -0.5 L 78.44345551926779 -0.5 Z"/><text text-anchor="middle" pointer-events="none" font-size="8px" fill="#000000" x="56.332127394267786" y="3" transform="rotate(180 56.332127394267786 0)" font-family="sans-serif">WORKS…</text></g><g class="relationship" transform="translate(40.81576890067811 -170.14599261634945) rotate(317.6051772998953)"><path class="outline" fill="#A5ABB6" stroke="none" d="M 32.5 0.5 L 33.20925295203736 0.5 L 33.20925295203736 -0.5 L 32.5 -0.5 Z M 78.62722170203736 0.5 L 79.33647465407472 0.5 L 79.33647465407472 3.5 L 86.33647465407472 0 L 79.33647465407472 -3.5 L 79.33647465407472 -0.5 L 78.62722170203736 -0.5 Z"/><text text-anchor="middle" pointer-events="none" font-size="8px" fill="#000000" x="55.91823732703736" y="3" font-family="sans-serif">LOCATE…</text></g><g class="relationship" transform="translate(-405.63513656759983 -22.677521744538918) rotate(291.09993280812466)"><path class="outline" fill="#A5ABB6" stroke="none" d="M 32.5 0.5 L 32.71224989442998 0.5 L 32.71224989442998 -0.5 L 32.5 -0.5 Z M 78.13021864442999 0.5 L 78.34246853885996 0.5 L 78.34246853885996 3.5 L 85.34246853885996 0 L 78.34246853885996 -3.5 L 78.34246853885996 -0.5 L 78.13021864442999 -0.5 Z"/><text text-anchor="middle" pointer-events="none" font-size="8px" fill="#000000" x="55.42123426942998" y="3" font-family="sans-serif">LOCATE…</text></g><g class="relationship" transform="translate(-420.31295607292657 161.724778007887) rotate(417.5814436464858)"><path class="outline" fill="#A5ABB6" stroke="none" d="M 32.5 0.5 L 34.88461185923567 0.5 L 34.88461185923567 -0.5 L 32.5 -0.5 Z M 74.96664310923566 0.5 L 77.35125496847134 0.5 L 77.35125496847134 3.5 L 84.35125496847134 0 L 77.35125496847134 -3.5 L 77.35125496847134 -0.5 L 74.96664310923566 -0.5 Z"/><text text-anchor="middle" pointer-events="none" font-size="8px" fill="#000000" x="54.92562748423567" y="3" font-family="sans-serif">LOCAT…</text></g><g class="relationship" transform="translate(122.23108394901118 -427.96431555975795) rotate(534.3743933660479)"><path class="outline" fill="#A5ABB6" stroke="none" d="M 32.5 0.5 L 33.39939222207773 0.5 L 33.39939222207773 -0.5 L 32.5 -0.5 Z M 78.81736097207772 0.5 L 79.71675319415546 0.5 L 79.71675319415546 3.5 L 86.71675319415546 0 L 79.71675319415546 -3.5 L 79.71675319415546 -0.5 L 78.81736097207772 -0.5 Z"/><text text-anchor="middle" pointer-events="none" font-size="8px" fill="#000000" x="56.10837659707773" y="3" transform="rotate(180 56.10837659707773 0)" font-family="sans-serif">LOCATE…</text></g><g class="relationship" transform="translate(331.1863458385009 -52.87401849530309) rotate(426.92601465274925)"><path class="outline" fill="#A5ABB6" stroke="none" d="M 32.5 0.5 L 33.342380069974 0.5 L 33.342380069974 -0.5 L 32.5 -0.5 Z M 78.760348819974 0.5 L 79.602728889948 0.5 L 79.602728889948 3.5 L 86.602728889948 0 L 79.602728889948 -3.5 L 79.602728889948 -0.5 L 78.760348819974 -0.5 Z"/><text text-anchor="middle" pointer-events="none" font-size="8px" fill="#000000" x="56.051364444974" y="3" font-family="sans-serif">LOCATE…</text></g><g class="relationship" transform="translate(7.483527853594912 621.5582250711875) rotate(326.59723018689397)"><path class="outline" fill="#A5ABB6" stroke="none" d="M 32.5 0.5 L 33.18310055208267 0.5 L 33.18310055208267 -0.5 L 32.5 -0.5 Z M 78.60106930208266 0.5 L 79.28416985416534 0.5 L 79.28416985416534 3.5 L 86.28416985416534 0 L 79.28416985416534 -3.5 L 79.28416985416534 -0.5 L 78.60106930208266 -0.5 Z"/><text text-anchor="middle" pointer-events="none" font-size="8px" fill="#000000" x="55.89208492708267" y="3" font-family="sans-serif">LOCATE…</text></g><g class="relationship" transform="translate(-114.65041010693734 25.04470508958908) rotate(538.233724358542)"><path class="outline" fill="#A5ABB6" stroke="none" d="M 32.5 0.5 L 35.15952930526752 0.5 L 35.15952930526752 -0.5 L 32.5 -0.5 Z M 75.24156055526751 0.5 L 77.90108986053504 0.5 L 77.90108986053504 3.5 L 84.90108986053504 0 L 77.90108986053504 -3.5 L 77.90108986053504 -0.5 L 75.24156055526751 -0.5 Z"/><text text-anchor="middle" pointer-events="none" font-size="8px" fill="#000000" x="55.20054493026752" y="3" transform="rotate(180 55.20054493026752 0)" font-family="sans-serif">LOCAT…</text></g><g class="relationship" transform="translate(219.61742842081372 162.81411637934218) rotate(458.29692683083516)"><path class="outline" fill="#A5ABB6" stroke="none" d="M 32.5 0.5 L 33.13563161786186 0.5 L 33.13563161786186 -0.5 L 32.5 -0.5 Z M 78.55360036786186 0.5 L 79.18923198572372 0.5 L 79.18923198572372 3.5 L 86.18923198572372 0 L 79.18923198572372 -3.5 L 79.18923198572372 -0.5 L 78.55360036786186 -0.5 Z"/><text text-anchor="middle" pointer-events="none" font-size="8px" fill="#000000" x="55.84461599286186" y="3" transform="rotate(180 55.84461599286186 0)" font-family="sans-serif">LOCATE…</text></g><g class="relationship" transform="translate(-211.1995644285522 507.41043954220703) rotate(278.0338807027366)"><path class="outline" fill="#A5ABB6" stroke="none" d="M 32.5 0.5 L 33.91281752740266 0.5 L 33.91281752740266 -0.5 L 32.5 -0.5 Z M 79.33078627740267 0.5 L 80.74360380480532 0.5 L 80.74360380480532 3.5 L 87.74360380480532 0 L 80.74360380480532 -3.5 L 80.74360380480532 -0.5 L 79.33078627740267 -0.5 Z"/><text text-anchor="middle" pointer-events="none" font-size="8px" fill="#000000" x="56.62180190240266" y="3" font-family="sans-serif">LOCATE…</text></g><g class="relationship" transform="translate(-178.64760933876948 -334.0257194743407) rotate(482.37038847906143)"><path class="outline" fill="#A5ABB6" stroke="none" d="M 32.5 0.5 L 32.97707683336853 0.5 L 32.97707683336853 -0.5 L 32.5 -0.5 Z M 78.39504558336853 0.5 L 78.87212241673706 0.5 L 78.87212241673706 3.5 L 85.87212241673706 0 L 78.87212241673706 -3.5 L 78.87212241673706 -0.5 L 78.39504558336853 -0.5 Z"/><text text-anchor="middle" pointer-events="none" font-size="8px" fill="#000000" x="55.68606120836853" y="3" transform="rotate(180 55.68606120836853 0)" font-family="sans-serif">LOCATE…</text></g></g><g class="layer nodes"><g class="node" transform="translate(5.549894152322684,503.8068806201528)"><circle class="outline" cx="0" cy="0" r="32.5" fill="#F79767" stroke="#f36924" stroke-width="2px"/><text text-anchor="middle" pointer-events="none" font-family="sans-serif" dy="2.03125" font-size="32.5" fill="#FFFFFF"/><text text-anchor="middle" pointer-events="none" font-family="sans-serif" dy="2.03125" font-size="32.5" fill="#FFFFFF"/><text text-anchor="middle" pointer-events="none" y="0" font-size="10px" fill="#FFFFFF" font-family="sans-serif"> Sir Jasper</text><text text-anchor="middle" pointer-events="none" y="10" font-size="10px" fill="#FFFFFF" font-family="sans-serif"> Meeks</text></g><g class="node" transform="translate(616.6356792019966,220.5337308411287)"><circle class="outline" cx="0" cy="0" r="32.5" fill="#F79767" stroke="#f36924" stroke-width="2px"/><text text-anchor="middle" pointer-events="none" font-family="sans-serif" dy="2.03125" font-size="32.5" fill="#FFFFFF"/><text text-anchor="middle" pointer-events="none" y="5" font-size="10px" fill="#FFFFFF" font-family="sans-serif"> H.R. Murray</text></g><g class="node" transform="translate(393.8638177841137,539.5114561665335)"><circle class="outline" cx="0" cy="0" r="32.5" fill="#57C7E3" stroke="#23b3d7" stroke-width="2px"/><text text-anchor="middle" pointer-events="none" font-family="sans-serif" dy="2.03125" font-size="32.5" fill="#FFFFFF"/><text text-anchor="middle" pointer-events="none" font-family="sans-serif" dy="2.03125" font-size="32.5" fill="#FFFFFF"/><text text-anchor="middle" pointer-events="none" y="0" font-size="10px" fill="#FFFFFF" font-family="sans-serif"> Scotland</text><text text-anchor="middle" pointer-events="none" y="10" font-size="10px" fill="#FFFFFF" font-family="sans-serif"> Yard</text></g><g class="node" transform="translate(-176.09389152147872,128.3287167573365)"><circle class="outline" cx="0" cy="0" r="32.5" fill="#F79767" stroke="#f36924" stroke-width="2px"/><text text-anchor="middle" pointer-events="none" font-family="sans-serif" dy="2.03125" font-size="32.5" fill="#FFFFFF"/><text text-anchor="middle" pointer-events="none" font-family="sans-serif" dy="2.03125" font-size="32.5" fill="#FFFFFF"/><text text-anchor="middle" pointer-events="none" y="0" font-size="10px" fill="#FFFFFF" font-family="sans-serif"> Disraeli</text><text text-anchor="middle" pointer-events="none" y="10" font-size="10px" fill="#FFFFFF" font-family="sans-serif"> O'brian</text></g><g class="node" transform="translate(157.79914972923163,-43.578573998696356)"><circle class="outline" cx="0" cy="0" r="32.5" fill="#57C7E3" stroke="#23b3d7" stroke-width="2px"/><text text-anchor="middle" pointer-events="none" font-family="sans-serif" dy="2.03125" font-size="32.5" fill="#FFFFFF"/><text text-anchor="middle" pointer-events="none" font-family="sans-serif" dy="2.03125" font-size="32.5" fill="#FFFFFF"/><text text-anchor="middle" pointer-events="none" y="0" font-size="10px" fill="#FFFFFF" font-family="sans-serif"> Somerset</text><text text-anchor="middle" pointer-events="none" y="10" font-size="10px" fill="#FFFFFF" font-family="sans-serif"> House</text></g><g class="node" transform="translate(100.38591772000188,560.2939416979133)"><circle class="outline" cx="0" cy="0" r="25" fill="#F16667" stroke="#eb2728" stroke-width="2px"/><text text-anchor="middle" pointer-events="none" font-family="sans-serif" dy="1.5625" font-size="25" fill="#FFFFFF"/><text text-anchor="middle" pointer-events="none" y="5" font-size="10px" fill="#FFFFFF" font-family="sans-serif"> 38 EC</text></g><g class="node" transform="translate(537.3669953128085,294.10898954374414)"><circle class="outline" cx="0" cy="0" r="25" fill="#F16667" stroke="#eb2728" stroke-width="2px"/><text text-anchor="middle" pointer-events="none" font-family="sans-serif" dy="1.5625" font-size="25" fill="#FFFFFF"/><text text-anchor="middle" pointer-events="none" y="5" font-size="10px" fill="#FFFFFF" font-family="sans-serif"> 22 SW</text></g><g class="node" transform="translate(203.57247470360767,272.83958965616023)"><circle class="outline" cx="0" cy="0" r="25" fill="#F16667" stroke="#eb2728" stroke-width="2px"/><text text-anchor="middle" pointer-events="none" font-family="sans-serif" dy="1.5625" font-size="25" fill="#FFFFFF"/><text text-anchor="middle" pointer-events="none" y="5" font-size="10px" fill="#FFFFFF" font-family="sans-serif"> 36 EC</text></g><g class="node" transform="translate(-195.4426703811032,395.77334674204326)"><circle class="outline" cx="0" cy="0" r="25" fill="#F16667" stroke="#eb2728" stroke-width="2px"/><text text-anchor="middle" pointer-events="none" font-family="sans-serif" dy="1.5625" font-size="25" fill="#FFFFFF"/><text text-anchor="middle" pointer-events="none" y="5" font-size="10px" fill="#FFFFFF" font-family="sans-serif"> 30 EC</text></g><g class="node" transform="translate(123.03956667692198,-245.21301378842458)"><circle class="outline" cx="0" cy="0" r="25" fill="#F16667" stroke="#eb2728" stroke-width="2px"/><text text-anchor="middle" pointer-events="none" font-family="sans-serif" dy="1.5625" font-size="25" fill="#FFFFFF"/><text text-anchor="middle" pointer-events="none" y="5" font-size="10px" fill="#FFFFFF" font-family="sans-serif"> 8 SW</text></g><g class="node" transform="translate(-23.426598417624067,318.29403091591223)"><circle class="outline" cx="0" cy="0" r="32.5" fill="#57C7E3" stroke="#23b3d7" stroke-width="2px"/><text text-anchor="middle" pointer-events="none" font-family="sans-serif" dy="2.03125" font-size="32.5" fill="#FFFFFF"/><text text-anchor="middle" pointer-events="none" font-family="sans-serif" dy="2.03125" font-size="32.5" fill="#FFFFFF"/><text text-anchor="middle" pointer-events="none" y="0" font-size="10px" fill="#FFFFFF" font-family="sans-serif"> Carlton</text><text text-anchor="middle" pointer-events="none" y="10" font-size="10px" fill="#FFFFFF" font-family="sans-serif"> House</text></g><g class="node" transform="translate(434.53779091817125,429.621099170778)"><circle class="outline" cx="0" cy="0" r="32.5" fill="#F79767" stroke="#f36924" stroke-width="2px"/><text text-anchor="middle" pointer-events="none" font-family="sans-serif" dy="2.03125" font-size="32.5" fill="#FFFFFF"/><text text-anchor="middle" pointer-events="none" font-family="sans-serif" dy="2.03125" font-size="32.5" fill="#FFFFFF"/><text text-anchor="middle" pointer-events="none" y="0" font-size="10px" fill="#FFFFFF" font-family="sans-serif"> Inspector</text><text text-anchor="middle" pointer-events="none" y="10" font-size="10px" fill="#FFFFFF" font-family="sans-serif"> Lestrade</text></g><g class="node" transform="translate(276.08441880488937,552.5769664594382)"><circle class="outline" cx="0" cy="0" r="32.5" fill="#F79767" stroke="#f36924" stroke-width="2px"/><text text-anchor="middle" pointer-events="none" font-family="sans-serif" dy="2.03125" font-size="32.5" fill="#FFFFFF"/><text text-anchor="middle" pointer-events="none" y="5" font-size="10px" fill="#FFFFFF" font-family="sans-serif"> Gregson</text></g><g class="node" transform="translate(568.5402303941388,-103.468786525336)"><circle class="outline" cx="0" cy="0" r="32.5" fill="#57C7E3" stroke="#23b3d7" stroke-width="2px"/><text text-anchor="middle" pointer-events="none" font-family="sans-serif" dy="2.03125" font-size="32.5" fill="#FFFFFF"/><text text-anchor="middle" pointer-events="none" y="5" font-size="10px" fill="#FFFFFF" font-family="sans-serif"> Raven &amp; Rat</text></g><g class="node" transform="translate(328.72397377844976,-249.38756876534484)"><circle class="outline" cx="0" cy="0" r="32.5" fill="#57C7E3" stroke="#23b3d7" stroke-width="2px"/><text text-anchor="middle" pointer-events="none" font-family="sans-serif" dy="2.03125" font-size="32.5" fill="#FFFFFF"/><text text-anchor="middle" pointer-events="none" font-family="sans-serif" dy="2.03125" font-size="32.5" fill="#FFFFFF"/><text text-anchor="middle" pointer-events="none" y="0" font-size="10px" fill="#FFFFFF" font-family="sans-serif"> Parsons &amp;</text><text text-anchor="middle" pointer-events="none" y="10" font-size="10px" fill="#FFFFFF" font-family="sans-serif"> Sons</text></g><g class="node" transform="translate(524.1648760605718,-0.013196208980358691)"><circle class="outline" cx="0" cy="0" r="25" fill="#F16667" stroke="#eb2728" stroke-width="2px"/><text text-anchor="middle" pointer-events="none" font-family="sans-serif" dy="1.5625" font-size="25" fill="#FFFFFF"/><text text-anchor="middle" pointer-events="none" y="5" font-size="10px" fill="#FFFFFF" font-family="sans-serif"> 52 EC</text></g><g class="node" transform="translate(-238.00747477533707,-240.38259957466778)"><circle class="outline" cx="0" cy="0" r="25" fill="#F16667" stroke="#eb2728" stroke-width="2px"/><text text-anchor="middle" pointer-events="none" font-family="sans-serif" dy="1.5625" font-size="25" fill="#FFFFFF"/><text text-anchor="middle" pointer-events="none" y="5" font-size="10px" fill="#FFFFFF" font-family="sans-serif"> 35 EC</text></g><g class="node" transform="translate(11.052393400640755,-417.01298175087726)"><circle class="outline" cx="0" cy="0" r="25" fill="#F16667" stroke="#eb2728" stroke-width="2px"/><text text-anchor="middle" pointer-events="none" font-family="sans-serif" dy="1.5625" font-size="25" fill="#FFFFFF"/><text text-anchor="middle" pointer-events="none" y="5" font-size="10px" fill="#FFFFFF" font-family="sans-serif"> 5 SW</text></g><g class="node" transform="translate(374.925624756896,49.8004407211061)"><circle class="outline" cx="0" cy="0" r="25" fill="#F16667" stroke="#eb2728" stroke-width="2px"/><text text-anchor="middle" pointer-events="none" font-family="sans-serif" dy="1.5625" font-size="25" fill="#FFFFFF"/><text text-anchor="middle" pointer-events="none" y="5" font-size="10px" fill="#FFFFFF" font-family="sans-serif"> 42 NW</text></g><g class="node" transform="translate(310.93700620519655,236.00686025178754)"><circle class="outline" cx="0" cy="0" r="32.5" fill="#F79767" stroke="#f36924" stroke-width="2px"/><text text-anchor="middle" pointer-events="none" font-family="sans-serif" dy="2.03125" font-size="32.5" fill="#FFFFFF"/><text text-anchor="middle" pointer-events="none" y="5" font-size="10px" fill="#FFFFFF" font-family="sans-serif"> Edward Hall</text></g><g class="node" transform="translate(631.8122097588534,-0.8116779798312861)"><circle class="outline" cx="0" cy="0" r="32.5" fill="#F79767" stroke="#f36924" stroke-width="2px"/><text text-anchor="middle" pointer-events="none" font-family="sans-serif" dy="2.03125" font-size="32.5" fill="#FFFFFF"/><text text-anchor="middle" pointer-events="none" font-family="sans-serif" dy="2.03125" font-size="32.5" fill="#FFFFFF"/><text text-anchor="middle" pointer-events="none" y="0" font-size="10px" fill="#FFFFFF" font-family="sans-serif"> Porky</text><text text-anchor="middle" pointer-events="none" y="10" font-size="10px" fill="#FFFFFF" font-family="sans-serif"> Shinwell</text></g><g class="node" transform="translate(348.22241772559295,-365.6579696936216)"><circle class="outline" cx="0" cy="0" r="32.5" fill="#F79767" stroke="#f36924" stroke-width="2px"/><text text-anchor="middle" pointer-events="none" font-family="sans-serif" dy="2.03125" font-size="32.5" fill="#FFFFFF"/><text text-anchor="middle" pointer-events="none" y="5" font-size="10px" fill="#FFFFFF" font-family="sans-serif"> Fred Porlock</text></g><g class="node" transform="translate(-300.98216216874204,429.45719889444604)"><circle class="outline" cx="0" cy="0" r="32.5" fill="#F79767" stroke="#f36924" stroke-width="2px"/><text text-anchor="middle" pointer-events="none" font-family="sans-serif" dy="2.03125" font-size="32.5" fill="#FFFFFF"/><text text-anchor="middle" pointer-events="none" y="5" font-size="10px" fill="#FFFFFF" font-family="sans-serif"> Henry Ellis</text></g><g class="node" transform="translate(-128.04708147189854,-225.58624117566214)"><circle class="outline" cx="0" cy="0" r="32.5" fill="#F79767" stroke="#f36924" stroke-width="2px"/><text text-anchor="middle" pointer-events="none" font-family="sans-serif" dy="2.03125" font-size="32.5" fill="#FFFFFF"/><text text-anchor="middle" pointer-events="none" y="5" font-size="10px" fill="#FFFFFF" font-family="sans-serif"> Quintin Hogg</text></g><g class="node" transform="translate(40.81576890067811,-170.14599261634945)"><circle class="outline" cx="0" cy="0" r="32.5" fill="#F79767" stroke="#f36924" stroke-width="2px"/><text text-anchor="middle" pointer-events="none" font-family="sans-serif" dy="2.03125" font-size="32.5" fill="#FFFFFF"/><text text-anchor="middle" pointer-events="none" font-family="sans-serif" dy="2.03125" font-size="32.5" fill="#FFFFFF"/><text text-anchor="middle" pointer-events="none" y="0" font-size="10px" fill="#FFFFFF" font-family="sans-serif"> Mycroft</text><text text-anchor="middle" pointer-events="none" y="10" font-size="10px" fill="#FFFFFF" font-family="sans-serif"> Holmes</text></g><g class="node" transform="translate(-405.63513656759983,-22.677521744538918)"><circle class="outline" cx="0" cy="0" r="32.5" fill="#F79767" stroke="#f36924" stroke-width="2px"/><text text-anchor="middle" pointer-events="none" font-family="sans-serif" dy="2.03125" font-size="32.5" fill="#FFFFFF"/><text text-anchor="middle" pointer-events="none" font-family="sans-serif" dy="2.03125" font-size="32.5" fill="#FFFFFF"/><text text-anchor="middle" pointer-events="none" y="0" font-size="10px" fill="#FFFFFF" font-family="sans-serif"> Langdale</text><text text-anchor="middle" pointer-events="none" y="10" font-size="10px" fill="#FFFFFF" font-family="sans-serif"> Pike</text></g><g class="node" transform="translate(-420.31295607292657,161.724778007887)"><circle class="outline" cx="0" cy="0" r="32.5" fill="#57C7E3" stroke="#23b3d7" stroke-width="2px"/><text text-anchor="middle" pointer-events="none" font-family="sans-serif" dy="2.03125" font-size="32.5" fill="#FFFFFF"/><text text-anchor="middle" pointer-events="none" font-family="sans-serif" dy="2.03125" font-size="32.5" fill="#FFFFFF"/><text text-anchor="middle" pointer-events="none" font-family="sans-serif" dy="2.03125" font-size="32.5" fill="#FFFFFF"/><text text-anchor="middle" pointer-events="none" y="-5" font-size="10px" fill="#FFFFFF" font-family="sans-serif"> Central</text><text text-anchor="middle" pointer-events="none" y="5" font-size="10px" fill="#FFFFFF" font-family="sans-serif"> Carriage</text><text text-anchor="middle" pointer-events="none" y="15" font-size="10px" fill="#FFFFFF" font-family="sans-serif"> Depot</text></g><g class="node" transform="translate(122.23108394901118,-427.96431555975795)"><circle class="outline" cx="0" cy="0" r="32.5" fill="#57C7E3" stroke="#23b3d7" stroke-width="2px"/><text text-anchor="middle" pointer-events="none" font-family="sans-serif" dy="2.03125" font-size="32.5" fill="#FFFFFF"/><text text-anchor="middle" pointer-events="none" y="5" font-size="10px" fill="#FFFFFF" font-family="sans-serif"> Lomax</text></g><g class="node" transform="translate(331.1863458385009,-52.87401849530309)"><circle class="outline" cx="0" cy="0" r="32.5" fill="#F79767" stroke="#f36924" stroke-width="2px"/><text text-anchor="middle" pointer-events="none" font-family="sans-serif" dy="2.03125" font-size="32.5" fill="#FFFFFF"/><text text-anchor="middle" pointer-events="none" font-family="sans-serif" dy="2.03125" font-size="32.5" fill="#FFFFFF"/><text text-anchor="middle" pointer-events="none" y="0" font-size="10px" fill="#FFFFFF" font-family="sans-serif"> Sherlock</text><text text-anchor="middle" pointer-events="none" y="10" font-size="10px" fill="#FFFFFF" font-family="sans-serif"> Holmes</text></g><g class="node" transform="translate(7.483527853594912,621.5582250711875)"><circle class="outline" cx="0" cy="0" r="32.5" fill="#57C7E3" stroke="#23b3d7" stroke-width="2px"/><text text-anchor="middle" pointer-events="none" font-family="sans-serif" dy="2.03125" font-size="32.5" fill="#FFFFFF"/><text text-anchor="middle" pointer-events="none" font-family="sans-serif" dy="2.03125" font-size="32.5" fill="#FFFFFF"/><text text-anchor="middle" pointer-events="none" y="0" font-size="10px" fill="#FFFFFF" font-family="sans-serif"> Saint</text><text text-anchor="middle" pointer-events="none" y="10" font-size="10px" fill="#FFFFFF" font-family="sans-serif"> Bartholome…</text></g><g class="node" transform="translate(-114.65041010693734,25.04470508958908)"><circle class="outline" cx="0" cy="0" r="32.5" fill="#57C7E3" stroke="#23b3d7" stroke-width="2px"/><text text-anchor="middle" pointer-events="none" font-family="sans-serif" dy="2.03125" font-size="32.5" fill="#FFFFFF"/><text text-anchor="middle" pointer-events="none" font-family="sans-serif" dy="2.03125" font-size="32.5" fill="#FFFFFF"/><text text-anchor="middle" pointer-events="none" font-family="sans-serif" dy="2.03125" font-size="32.5" fill="#FFFFFF"/><text text-anchor="middle" pointer-events="none" y="-5" font-size="10px" fill="#FFFFFF" font-family="sans-serif"> Office of</text><text text-anchor="middle" pointer-events="none" y="5" font-size="10px" fill="#FFFFFF" font-family="sans-serif"> National</text><text text-anchor="middle" pointer-events="none" y="15" font-size="10px" fill="#FFFFFF" font-family="sans-serif"> Archives</text></g><g class="node" transform="translate(219.61742842081372,162.81411637934218)"><circle class="outline" cx="0" cy="0" r="32.5" fill="#57C7E3" stroke="#23b3d7" stroke-width="2px"/><text text-anchor="middle" pointer-events="none" font-family="sans-serif" dy="2.03125" font-size="32.5" fill="#FFFFFF"/><text text-anchor="middle" pointer-events="none" y="5" font-size="10px" fill="#FFFFFF" font-family="sans-serif"> Old Bailey</text></g><g class="node" transform="translate(-7.57999074119329,210.28636783615156)"><circle class="outline" cx="0" cy="0" r="25" fill="#F16667" stroke="#eb2728" stroke-width="2px"/><text text-anchor="middle" pointer-events="none" font-family="sans-serif" dy="1.5625" font-size="25" fill="#FFFFFF"/><text text-anchor="middle" pointer-events="none" y="5" font-size="10px" fill="#FFFFFF" font-family="sans-serif"> 100 SW</text></g><g class="node" transform="translate(322.921996239131,450.4346791052911)"><circle class="outline" cx="0" cy="0" r="25" fill="#F16667" stroke="#eb2728" stroke-width="2px"/><text text-anchor="middle" pointer-events="none" font-family="sans-serif" dy="1.5625" font-size="25" fill="#FFFFFF"/><text text-anchor="middle" pointer-events="none" y="5" font-size="10px" fill="#FFFFFF" font-family="sans-serif"> 13 SW</text></g><g class="node" transform="translate(-224.49928328157682,28.432125169143454)"><circle class="outline" cx="0" cy="0" r="25" fill="#F16667" stroke="#eb2728" stroke-width="2px"/><text text-anchor="middle" pointer-events="none" font-family="sans-serif" dy="1.5625" font-size="25" fill="#FFFFFF"/><text text-anchor="middle" pointer-events="none" y="5" font-size="10px" fill="#FFFFFF" font-family="sans-serif"> 14 WC</text></g><g class="node" transform="translate(72.10195702653702,30.029458057385614)"><circle class="outline" cx="0" cy="0" r="25" fill="#F16667" stroke="#eb2728" stroke-width="2px"/><text text-anchor="middle" pointer-events="none" font-family="sans-serif" dy="1.5625" font-size="25" fill="#FFFFFF"/><text text-anchor="middle" pointer-events="none" y="5" font-size="10px" fill="#FFFFFF" font-family="sans-serif"> 17 WC</text></g><g class="node" transform="translate(432.20211108525945,-289.27239610187553)"><circle class="outline" cx="0" cy="0" r="25" fill="#F16667" stroke="#eb2728" stroke-width="2px"/><text text-anchor="middle" pointer-events="none" font-family="sans-serif" dy="1.5625" font-size="25" fill="#FFFFFF"/><text text-anchor="middle" pointer-events="none" y="5" font-size="10px" fill="#FFFFFF" font-family="sans-serif"> 18 NW</text></g><g class="node" transform="translate(-365.9123208184465,-125.6219643930283)"><circle class="outline" cx="0" cy="0" r="25" fill="#F16667" stroke="#eb2728" stroke-width="2px"/><text text-anchor="middle" pointer-events="none" font-family="sans-serif" dy="1.5625" font-size="25" fill="#FFFFFF"/><text text-anchor="middle" pointer-events="none" y="5" font-size="10px" fill="#FFFFFF" font-family="sans-serif"> 2 SW</text></g><g class="node" transform="translate(-361.6897243466017,254.03411483326585)"><circle class="outline" cx="0" cy="0" r="25" fill="#F16667" stroke="#eb2728" stroke-width="2px"/><text text-anchor="middle" pointer-events="none" font-family="sans-serif" dy="1.5625" font-size="25" fill="#FFFFFF"/><text text-anchor="middle" pointer-events="none" y="5" font-size="10px" fill="#FFFFFF" font-family="sans-serif"> 5 WC</text></g><g class="node" transform="translate(-211.1995644285522,507.41043954220703)"><circle class="outline" cx="0" cy="0" r="32.5" fill="#57C7E3" stroke="#23b3d7" stroke-width="2px"/><text text-anchor="middle" pointer-events="none" font-family="sans-serif" dy="2.03125" font-size="32.5" fill="#FFFFFF"/><text text-anchor="middle" pointer-events="none" font-family="sans-serif" dy="2.03125" font-size="32.5" fill="#FFFFFF"/><text text-anchor="middle" pointer-events="none" y="0" font-size="10px" fill="#FFFFFF" font-family="sans-serif"> London</text><text text-anchor="middle" pointer-events="none" y="10" font-size="10px" fill="#FFFFFF" font-family="sans-serif"> Times</text></g><g class="node" transform="translate(-178.64760933876948,-334.0257194743407)"><circle class="outline" cx="0" cy="0" r="32.5" fill="#57C7E3" stroke="#23b3d7" stroke-width="2px"/><text text-anchor="middle" pointer-events="none" font-family="sans-serif" dy="2.03125" font-size="32.5" fill="#FFFFFF"/><text text-anchor="middle" pointer-events="none" font-family="sans-serif" dy="2.03125" font-size="32.5" fill="#FFFFFF"/><text text-anchor="middle" pointer-events="none" y="0" font-size="10px" fill="#FFFFFF" font-family="sans-serif"> Police</text><text text-anchor="middle" pointer-events="none" y="10" font-size="10px" fill="#FFFFFF" font-family="sans-serif"> Gazette</text></g></g></svg>